<svg width="1024" height="1024" viewBox="0 0 1024 1024" fill="none" xmlns="http://www.w3.org/2000/svg">
  <defs>
    <linearGradient id="bg" x1="164" y1="120" x2="862" y2="914" gradientUnits="userSpaceOnUse">
      <stop stop-color="#111827"/>
      <stop offset="0.52" stop-color="#0F172A"/>
      <stop offset="1" stop-color="#1D4ED8"/>
    </linearGradient>
    <radialGradient id="glow" cx="0" cy="0" r="1" gradientUnits="userSpaceOnUse" gradientTransform="translate(338 256) rotate(39.2) scale(502 380)">
      <stop stop-color="#60A5FA" stop-opacity="0.9"/>
      <stop offset="1" stop-color="#60A5FA" stop-opacity="0"/>
    </radialGradient>
    <linearGradient id="mark" x1="314" y1="286" x2="706" y2="742" gradientUnits="userSpaceOnUse">
      <stop stop-color="#F8FAFC"/>
      <stop offset="1" stop-color="#DBEAFE"/>
    </linearGradient>
  </defs>

  <rect x="88" y="88" width="848" height="848" rx="224" fill="url(#bg)"/>
  <rect x="88" y="88" width="848" height="848" rx="224" fill="url(#glow)"/>
  <rect x="88" y="88" width="848" height="848" rx="224" stroke="rgba(255,255,255,0.08)" stroke-width="2"/>

  <path
    d="M308 714V346C308 320.595 328.595 300 354 300C369.812 300 384.576 308.088 393.144 321.459L512 507L630.856 321.459C639.424 308.088 654.188 300 670 300C695.405 300 716 320.595 716 346V714"
    stroke="url(#mark)"
    stroke-width="74"
    stroke-linecap="round"
    stroke-linejoin="round"
  />

  <circle cx="308" cy="714" r="34" fill="#93C5FD"/>
  <circle cx="716" cy="714" r="34" fill="#93C5FD"/>
  <circle cx="512" cy="507" r="30" fill="#BFDBFE"/>
</svg>
